# xmcd
#
# Track frame offsets: 
#        150
#        10834
#        22929
#        36663
#        48850
#        58787
#        73499
#        85238
#        98204
#        110417
#        121158
#        131794
#        145123
#        157073
#        169354
#        181728
#        192547
#        206955
#        222189
#        234991
#        248434
#        261535
#        273637
#        286325
#        298667
#
# Disc length: 4127 seconds
#
# Revision: 0
# Processed by: cddbd v1.5.2PL0 Copyright (c) Steve Scherf et al.
# Submitted via: ExactAudioCopyFreeDBPlugin 1.0
#
DISCID=87101d19
DTITLE=Various Artist - Deep Feeling [CD2]
DYEAR=2014
DGENRE=Blues
TTITLE0=Elmore James - Done Somebody Wrong
TTITLE1=Otis Rush - My Baby's A Good'Un
TTITLE2=Albert King - Travelin' To California
TTITLE3=Goree Carter - Rock Awhile
TTITLE4=Little Milton - I'm Tryin'
TTITLE5=B.B. King - Don't Have To Cry
TTITLE6=Guitar Slim - Guitar Slim
TTITLE7=Johnny Fuller - How Long
TTITLE8=John Lee Hooker - Lovin' Guitar Man
TTITLE9=Lee Jackson - I'll Just Keep Walkin'
TTITLE10=Earl King - I'm Your Best Bet, Baby
TTITLE11=Chuck Berry - Too Much Monkey Business
TTITLE12=Freddy King - San-Ho-Zay
TTITLE13=The Ohio Untouchables (feat. Robert Ward) - Forgive Me Darlin
TTITLE13=g
TTITLE14=Hop Wilson - I Met A Strange Woman
TTITLE15=Bo Diddley - Mona (I Need You Baby)
TTITLE16=Buddy Guy - Broken Hearted Blues
TTITLE17=John Lee - Down At The Depot
TTITLE18=Red Johnson (feat. J.D. Edwards) - Mama Does The Boogie
TTITLE19=Eddie Kirkland - It's Time For Lovin' To Be Done
TTITLE20=Johnny Otis (feat. Pete Guitar Lewis) - Hangover Blues
TTITLE21=Frankie Lee Sims - Misery Blues
TTITLE22=Gene Phillips - Gene's Guitar Blues
TTITLE23=Pee Wee Crayton - Central Avenue Blues
TTITLE24=Eddie Taylor - Looking For Trouble
EXTD=
EXTT0=
EXTT1=
EXTT2=
EXTT3=
EXTT4=
EXTT5=
EXTT6=
EXTT7=
EXTT8=
EXTT9=
EXTT10=
EXTT11=
EXTT12=
EXTT13=
EXTT14=
EXTT15=
EXTT16=
EXTT17=
EXTT18=
EXTT19=
EXTT20=
EXTT21=
EXTT22=
EXTT23=
EXTT24=
PLAYORDER=
